PathFileType	4	(X/Y/Z)	C:\Users\WrightLab\Desktop\Jo\P1_boxCal23.trc
DataRate	CameraRate	NumFrames	NumMarkers	Units	OrigDataRate	OrigDataStartFrame	OrigNumFrames
100.00	100.00	       45	19	mm	100.00	614	       701
Frame#	Time	Headset_Front			Headset_Back			Headset_Left			Headset_Right			Left_Shoulder			Right_Shoulder			Sternum			C7			Left Elbow			Right Elbow			Left Wrist			Right Wrist			Left ASIS			Right ASIS			S2			Left Knee			Right Knee			Left Ankle			Right Ankle			
		X1	Y1	Z1	X2	Y2	Z2	X3	Y3	Z3	X4	Y4	Z4	X5	Y5	Z5	X6	Y6	Z6	X7	Y7	Z7	X8	Y8	Z8	X9	Y9	Z9	X10	Y10	Z10	X11	Y11	Z11	X12	Y12	Z12	X13	Y13	Z13	X14	Y14	Z14	X15	Y15	Z15	X16	Y16	Z16	X17	Y17	Z17	X18	Y18	Z18	X19	Y19	Z19	

614	6.130							-458.90070	1420.06116	-1198.03711							-350.33774	1218.46411	-923.62518	-320.63519	1143.14001	-1146.35095	-551.63281	1230.00500	-1039.00024				-351.68921	944.88831	-832.09009				-244.23648	723.26074	-828.35693	-335.05179	872.42462	-1267.74500	-259.10489	855.82281	-1080.60901	-592.14514	848.18835	-1042.10754				-355.88483	408.81616	-961.67267							
615	6.140																-350.21820	1218.19141	-931.56830	-315.71646	1143.14111	-1152.49573	-549.26862	1229.20105	-1050.76709				-352.83389	945.11804	-838.95325				-247.10555	723.24542	-830.27350	-326.39694	872.11438	-1274.19653	-256.28229	855.52075	-1089.20459	-587.93378	846.27655	-1056.82727				-356.61011	409.47528	-965.32263							
616	6.150																-350.33618	1217.47400	-939.57379	-311.18973	1143.40210	-1160.56934	-546.63391	1227.99658	-1063.49646				-353.84534	944.62506	-847.85596				-251.72366	722.78345	-833.82965	-317.71100	872.51135	-1281.98328	-252.56071	855.70007	-1093.82263	-585.86615	843.32629	-1079.87122				-356.53961	410.60800	-970.78119							
617	6.160																-350.53418	1216.95984	-947.20117	-306.60287	1143.34900	-1168.22803	-544.44122	1227.61475	-1075.27930				-354.84930	944.57001	-854.85931				-254.95851	722.52484	-837.43658	-308.86932	872.63934	-1288.83521	-249.40300	857.08179	-1096.79224	-583.48566	843.70856	-1094.52087				-359.01633	409.96216	-974.15338							
618	6.170																-350.87192	1216.96594	-955.62646	-301.69998	1143.60852	-1176.02100	-541.52167	1226.00684	-1088.35254				-358.57571	944.04816	-863.62854				-257.95700	722.06934	-841.58655	-299.97534	873.13019	-1296.49622	-246.95470	856.70886	-1101.67065	-581.60321	842.60565	-1107.27527				-359.21555	410.22681	-979.52240							
619	6.180																-352.42316	1215.70154	-964.81848	-296.92490	1143.48706	-1183.31738	-539.26245	1224.44739	-1101.45264				-358.47122	943.20929	-872.32501				-262.74783	721.86017	-847.71985	-291.10599	873.57373	-1303.94275	-242.73743	858.07849	-1107.64319	-577.80304	842.29242	-1125.60559				-359.56992	411.38525	-984.86908							
620	6.190																-353.78564	1214.03137	-972.34247	-292.02493	1142.94507	-1189.65442	-536.41577	1223.17505	-1115.12952				-361.16739	943.27203	-881.59259				-265.24948	721.57135	-851.40607	-282.13589	873.31641	-1310.62939	-240.74066	856.81714	-1115.34778	-573.29230	839.24622	-1145.28052				-359.67645	411.74277	-991.25647							
621	6.200																-355.06870	1213.00769	-983.26031	-287.29950	1142.51941	-1197.14038	-533.22888	1220.85535	-1128.71326				-363.92914	941.64532	-891.17450				-269.05115	721.16321	-856.77997	-272.99933	872.91754	-1316.86389	-237.35165	857.03058	-1120.90674	-569.74347	838.41724	-1160.49915				-358.98111	412.44193	-996.71136							
622	6.210																-356.36868	1211.32458	-992.97833	-282.64490	1142.23853	-1205.30737	-530.92731	1219.04285	-1142.99194				-367.82559	940.60370	-900.64111				-271.58997	720.06812	-862.27142	-264.01407	872.60773	-1323.89453	-233.94179	857.05573	-1128.43811	-564.64569	837.17194	-1178.99939				-359.74338	412.05554	-1003.75159							
623	6.220																-358.48581	1209.38452	-1001.84888	-277.86649	1141.52319	-1213.24451	-528.84198	1216.09570	-1163.67468				-370.23953	938.90204	-909.65326				-275.04132	718.42865	-869.39856				-232.21008	856.77704	-1132.27673	-561.98260	836.20703	-1191.71643				-358.46390	411.46576	-1009.09631							
624	6.230																-360.41348	1206.75391	-1012.25793				-526.64380	1213.07458	-1178.12646				-373.85840	937.06653	-919.81750				-277.86047	717.96869	-873.97711				-228.64847	856.02576	-1140.75366							-355.87808	412.52826	-1015.06403							
625	6.240																-362.94360	1204.54626	-1022.44086				-523.52246	1209.82800	-1195.77539				-377.52789	934.60706	-930.06409				-280.46133	717.32086	-881.29315				-225.55043	854.24377	-1147.74475							-354.23401	411.90363	-1020.18903							
626	6.250																-365.34814	1202.20642	-1032.39001				-520.44897	1209.35901	-1204.79260				-381.71902	931.72864	-941.51172				-283.97079	714.63458	-886.71680				-222.35342	852.27435	-1154.91370							-351.94565	411.81802	-1025.53223							
627	6.260																-368.19049	1199.57031	-1042.84973				-516.85608	1206.48596	-1219.36072				-385.44711	928.69275	-952.42657				-286.35312	713.98657	-894.04565				-220.47517	850.30457	-1160.13245							-349.77777	411.76340	-1030.23730							
628	6.270																-370.88632	1196.53162	-1052.48254				-513.16986	1204.51453	-1234.70972				-389.92047	926.00238	-963.82758				-289.67673	712.72699	-901.84186				-217.77541	848.70435	-1167.02710							-347.85364	411.28964	-1036.68909							
629	6.280																-374.32254	1194.15332	-1062.97937				-509.53082	1203.31384	-1250.78088				-394.39185	922.82025	-975.59033				-292.04968	711.87018	-909.49463				-215.81676	846.87799	-1173.66516							-345.22836	412.64594	-1041.64453							
630	6.290																-378.69763	1192.36560	-1073.53101				-505.58023	1201.49170	-1264.20166				-397.70892	919.41461	-986.86871				-296.55588	708.91608	-920.45599				-214.34506	845.14874	-1180.34351							-340.67938	412.29819	-1047.84509							
631	6.300																-381.96292	1190.66797	-1083.75708				-501.51370	1201.81372	-1280.68616				-401.75330	916.38556	-999.69128				-300.40640	708.40204	-928.95593				-212.83856	842.74646	-1186.80835							-344.18607	409.31528	-1059.98486							
632	6.310																-385.26138	1189.59216	-1093.64978				-497.09180	1202.18762	-1296.19324				-406.57855	914.57422	-1013.15668				-303.30664	708.12585	-938.32263				-211.45425	841.06671	-1194.00537							-340.66498	408.86029	-1066.74292							
633	6.320																-388.12125	1189.47485	-1104.19690				-493.03018	1202.25684	-1309.01465				-410.30588	912.39819	-1027.17236				-306.99890	707.30554	-948.81854				-210.43806	839.90552	-1200.87134							-338.12433	409.03680	-1073.10901							
634	6.330																-391.68115	1189.27393	-1113.78076				-488.15598	1203.34875	-1324.14014				-413.85489	910.83765	-1041.24658				-311.42572	706.20154	-959.07349				-210.29416	839.08978	-1205.32971							-334.89230	407.27133	-1081.31250							
635	6.340																-394.22971	1189.66174	-1123.11511										-417.28265	910.08722	-1054.84656				-315.27676	706.47961	-970.34082				-209.70789	837.92261	-1211.32605							-332.56589	407.89816	-1088.64502							
636	6.350																-396.78778	1190.69702	-1132.74597										-421.87900	910.77148	-1068.64368				-320.02963	706.52032	-981.88647				-210.31137	837.62567	-1213.63940							-329.61694	406.99878	-1099.46423							
637	6.360																-400.01755	1192.72119	-1142.74011										-424.06308	910.85419	-1083.70618				-323.86548	706.88904	-993.97345				-211.12405	836.91412	-1217.69360							-325.68668	407.77356	-1105.79724							
638	6.370																-401.66165	1194.46472	-1153.56628										-429.52249	910.84607	-1100.37268				-327.64670	706.49445	-1006.33148				-213.95682	834.30066	-1231.68518							-323.73038	406.27628	-1116.33411							
639	6.380																-405.24112	1194.47217	-1167.63062										-433.32285	912.43274	-1111.26062				-332.18781	707.82227	-1018.66089				-216.27075	835.10822	-1238.28821							-320.29041	407.62082	-1123.86523							
640	6.390																-406.81036	1197.73328	-1173.48181										-436.58060	914.57947	-1121.50427				-336.09457	707.87939	-1030.48230				-217.24721	836.26294	-1241.70386							-317.46048	408.83386	-1134.16809							
641	6.400																-409.72702	1198.12622	-1186.48694										-440.26974	915.88757	-1133.25623				-342.51318	706.80280	-1045.19360				-220.51288	839.29492	-1239.48047							-316.15701	409.74646	-1141.52124							
642	6.410																-413.00662	1202.36377	-1194.64819										-443.27658	918.68341	-1142.44592				-346.39017	706.51294	-1057.11462				-223.80305	840.67474	-1242.26489							-314.52179	410.26175	-1149.64624							
643	6.420																-415.20560	1204.69641	-1199.72656										-448.44046	921.77960	-1150.32715				-351.08862	708.59906	-1070.11377				-225.75484	842.76318	-1245.55945							-312.80353	412.31650	-1156.72644							
644	6.430																-418.97403	1206.27356	-1211.75293										-452.24573	924.21930	-1157.37415				-355.76871	706.80188	-1083.49023				-228.86880	843.05383	-1250.90637							-313.34268	414.02164	-1165.77332							
645	6.440																-420.05002	1209.64063	-1217.79761										-456.39340	926.33838	-1164.79639				-359.44955	709.60413	-1091.86890				-232.86850	845.54926	-1249.06128							-312.48026	413.22211	-1175.57715							
646	6.450																												-461.23276	928.36908	-1168.36646				-363.42255	710.67865	-1098.53174				-236.66283	846.75275	-1250.60950							-312.47113	415.27322	-1181.95813							
647	6.460																												-466.31540	930.03351	-1177.07056				-368.29495	710.79584	-1108.24268				-240.08104	848.23346	-1255.06665							-314.41922	415.69199	-1188.15332							
648	6.470																												-471.56674	933.10089	-1183.00684				-372.51169	713.24603	-1115.75476				-243.99762	849.32233	-1255.39856							-315.78308	415.84369	-1195.02966							
649	6.480																												-478.43369	934.04730	-1194.06714				-378.64810	714.38477	-1125.12561				-247.85771	849.69263	-1258.60632							-317.81372	416.19040	-1203.45593							
650	6.490																												-484.61472	937.38922	-1202.78113				-383.11887	715.65192	-1130.87720				-250.37309	850.19489	-1263.33154							-321.43332	414.71536	-1211.30054							
651	6.500																												-491.08167	938.57300	-1213.65820				-388.03067	715.92773	-1139.75354				-253.99902	851.20111	-1267.89734							-325.86050	415.25757	-1218.25574							
652	6.510																												-497.89609	939.46460	-1226.57214				-393.62567	718.04083	-1143.97986				-257.75195	854.74927	-1262.19348							-329.37558	414.95520	-1226.68445							
653	6.520																												-503.11395	939.90497	-1237.63635				-399.34277	719.96259	-1150.75330				-260.79990	852.80890	-1272.35901							-333.29788	414.70349	-1234.99988							
654	6.530																												-508.31943	941.10876	-1244.34973				-406.48978	720.02368	-1158.68164				-263.41147	855.65179	-1272.22632							-338.00366	413.89447	-1246.54736							
655	6.540																												-514.00116	941.19873	-1262.52588				-411.92093	721.98462	-1162.26135				-267.59891	853.89319	-1276.66553							-344.83673	413.43085	-1255.10095							
656	6.550																												-517.47241	941.23584	-1270.79333				-418.69196	723.23041	-1170.26306				-270.52975	855.50092	-1277.21643							-350.92950	411.51086	-1265.73828							
657	6.560																												-522.54895	945.78412	-1270.99243				-425.24106	723.99054	-1175.15686				-274.43408	855.76892	-1283.15247							-355.12363	411.83450	-1272.47522							
658	6.570																												-526.44159	946.90131	-1280.13904				-432.56458	724.59583	-1179.53345				-277.83209	855.75995	-1282.27307							-362.96030	411.14566	-1282.81287							
